# xmcd
#
# Track frame offsets: 
#        150
#        12157
#        25347
#        37987
#        52785
#        66990
#        77999
#        87748
#        103685
#        117895
#        132927
#        148578
#        161462
#        177174
#        190088
#        205640
#        216794
#        232835
#        247173
#        261366
#
# Disc length: 3692 seconds
#
# Revision: 0
# Processed by: cddbd v1.5.2PL0 Copyright (c) Steve Scherf et al.
# Submitted via: ExactAudioCopy v0.95b4
#
DISCID=140e6a14
DTITLE=배호 - 천상의 가수 배호 전집 (아세아-2006) (10 CD)-04
DYEAR=2006
DGENRE=Country
TTITLE0=능금빛 순정
TTITLE1=한밤의 음악편지
TTITLE2=아쉬운 이별
TTITLE3=결혼 각서
TTITLE4=십자로
TTITLE5=언젠가 꽃피는 날
TTITLE6=적도
TTITLE7=파도
TTITLE8=황토 십리길
TTITLE9=마음의 그림자
TTITLE10=추억의 백마강
TTITLE11=타향살이
TTITLE12=황성옛터
TTITLE13=나그네 설움
TTITLE14=추억의 백마강(경음악)
TTITLE15=능금빛 순정(MR)
TTITLE16=파도(MR)
TTITLE17=황토 십리길(MR)
TTITLE18=십자로(MR)
TTITLE19=추억의 백마강(MR)
EXTD=
EXTT0=
EXTT1=
EXTT2=
EXTT3=
EXTT4=
EXTT5=
EXTT6=
EXTT7=
EXTT8=
EXTT9=
EXTT10=
EXTT11=
EXTT12=
EXTT13=
EXTT14=
EXTT15=
EXTT16=
EXTT17=
EXTT18=
EXTT19=
PLAYORDER=
